<!--?xml version="1.0" standalone="no"?-->
              <svg id="sw-js-blob-svg" viewBox="0 0 100 100" xmlns="http://www.w3.org/2000/svg" version="1.1">
                    <defs> 
                        <linearGradient id="sw-gradient" x1="0" x2="1" y1="1" y2="0">
                            <stop id="stop1" stop-color="rgba(79.509, 201.127, 242.549, 1)" offset="0%"></stop>
                            <stop id="stop2" stop-color="rgba(0, 126.871, 249.344, 1)" offset="100%"></stop>
                        </linearGradient>
                    </defs>
                <path fill="url(#sw-gradient)" d="M17.3,-19.9C24.8,-14.4,34.7,-11.1,38.8,-4.4C42.9,2.4,41.2,12.6,34.8,16.7C28.4,20.9,17.3,18.9,9.1,19.6C0.8,20.3,-4.5,23.7,-8,22.3C-11.5,20.9,-13.1,14.7,-16,9.4C-18.8,4.1,-22.9,-0.3,-23.5,-5.4C-24.1,-10.5,-21.3,-16.3,-16.8,-22.3C-12.3,-28.4,-6.2,-34.7,-0.6,-33.9C4.9,-33.2,9.9,-25.4,17.3,-19.9Z" width="100%" height="100%" transform="translate(50 50)" stroke-width="0" style="transition: all 0.3s ease 0s;"></path>
              </svg>